<?xml version="1.0" encoding="utf-8"?>
<!-- Generator: Adobe Illustrator 17.1.0, SVG Export Plug-In . SVG Version: 6.00 Build 0)  -->
<!DOCTYPE svg PUBLIC "-//W3C//DTD SVG 1.1//EN" "http://www.w3.org/Graphics/SVG/1.1/DTD/svg11.dtd">
<svg version="1.1" id="Layer_1" xmlns="http://www.w3.org/2000/svg" xmlns:xlink="http://www.w3.org/1999/xlink" x="0px" y="0px"
	 width="180" height="60" viewBox="0 130 300 24" enable-background="new 0 0 300 300" xml:space="preserve">
<g>
	<path fill="#FF9900" d="M120.6,163.4c-10.5,7.7-25.7,11.9-38.8,11.9c-18.4,0-34.9-6.8-47.4-18.1c-1-0.9-0.1-2.1,1.1-1.4
		c13.5,7.9,30.2,12.6,47.5,12.6c11.6,0,24.4-2.4,36.2-7.4C120.8,160.2,122.3,162.1,120.6,163.4L120.6,163.4z"/>
	<path fill="#FF9900" d="M124.8,158.4c-1.3-1.7-8.9-0.8-12.3-0.4c-1,0.1-1.2-0.8-0.3-1.4c6-4.2,15.9-3,17-1.6
		c1.1,1.4-0.3,11.3-5.9,16c-0.9,0.7-1.7,0.3-1.3-0.6C123.3,167.2,126.3,160.1,124.8,158.4L124.8,158.4z"/>
	<path d="M112.8,126.7v-4.1c0-0.6,0.5-1,1-1h18.4c0.6,0,1.1,0.4,1.1,1v3.5c0,0.6-0.5,1.4-1.4,2.6l-9.5,13.6
		c3.5-0.1,7.3,0.4,10.5,2.2c0.7,0.4,0.9,1,1,1.6v4.4c0,0.6-0.7,1.3-1.4,0.9c-5.7-3-13.2-3.3-19.4,0c-0.6,0.3-1.3-0.3-1.3-0.9v-4.2
		c0-0.7,0-1.8,0.7-2.8l11-15.8h-9.6C113.3,127.8,112.8,127.3,112.8,126.7L112.8,126.7z"/>
	<path d="M45.8,152.3h-5.6c-0.5,0-1-0.4-1-1v-28.6c0-0.6,0.5-1,1.1-1h5.2c0.5,0,1,0.4,1,1v3.8h0.1c1.4-3.6,3.9-5.3,7.4-5.3
		s5.7,1.7,7.3,5.3c1.4-3.6,4.4-5.3,7.7-5.3c2.3,0,4.9,1,6.5,3.1c1.8,2.4,1.4,5.9,1.4,9v18.1c0,0.6-0.5,1-1.1,1h-5.6
		c-0.6,0-1-0.5-1-1v-15.3c0-1.2,0.1-4.2-0.2-5.4c-0.4-1.9-1.7-2.5-3.3-2.5c-1.4,0-2.8,0.9-3.3,2.4c-0.6,1.4-0.5,3.9-0.5,5.5v15.2
		c0,0.6-0.5,1-1.1,1h-5.6c-0.6,0-1-0.5-1-1v-15.2c0-3.2,0.5-7.9-3.4-7.9c-4,0-3.9,4.6-3.9,7.9v15.2
		C46.8,151.9,46.5,152.3,45.8,152.3L45.8,152.3z"/>
	<path d="M149.1,121.1c8.3,0,12.8,7.1,12.8,16.2c0,8.8-5,15.7-12.8,15.7c-8.1,0-12.6-7.1-12.6-16C136.6,128,141.1,121.1,149.1,121.1
		z M149.3,126.9c-4.1,0-4.4,5.6-4.4,9.1s-0.1,11,4.3,11c4.3,0,4.5-6,4.5-9.7c0-2.4-0.1-5.3-0.8-7.6
		C152.3,127.7,151.1,126.9,149.3,126.9L149.3,126.9z"/>
	<path d="M172.8,152.3h-5.6c-0.6,0-1-0.5-1-1v-28.7c0-0.5,0.5-0.9,1.1-0.9h5.2c0.5,0,0.9,0.4,1,0.8v4.4h0.1c1.6-3.9,3.8-5.8,7.6-5.8
		c2.5,0,5,0.9,6.5,3.4c1.5,2.3,1.5,6.2,1.5,8.9v18.1c-0.1,0.5-0.5,0.9-1.1,0.9h-5.6c-0.5,0-0.9-0.4-1-0.9v-15.7
		c0-3.1,0.4-7.7-3.5-7.7c-1.4,0-2.6,0.9-3.2,2.3c-0.8,1.8-0.9,3.5-0.9,5.4v15.5C173.9,151.9,173.4,152.3,172.8,152.3L172.8,152.3z"
		/>
	<path d="M192.6,150.1c0-1.4,1.2-2.6,2.8-2.6c1.5,0,2.8,1.2,2.8,2.6s-1.2,2.6-2.8,2.6C193.9,152.7,192.6,151.5,192.6,150.1z"/>
	<path d="M251.9,152.4c-0.6,0-1-0.5-1-1v-28.8c0-0.5,0.5-0.9,1-0.9h2.1c0.6,0,1,0.4,1.1,0.9v4.2c1.5-3.3,4.2-5.9,7.6-5.9h0.4
		c3.7,0,6.3,2.7,7.3,6.6c1.5-3.9,4.5-6.6,8.3-6.6h0.4c2.7,0,5.3,1.7,6.7,4.4c1.3,2.5,1.3,5.9,1.3,8.8v17.3c0,0.6-0.4,1-1,1h-2.5
		c-0.5,0-1-0.4-1-0.9V134c0-2.1,0.1-4.2-0.7-6.1c-0.8-1.9-2.5-3.1-4.2-3.2c-2,0.1-3.7,1.5-4.9,3.4c-1.5,2.5-1.5,4.7-1.5,7.6v15.7
		c-0.1,0.5-0.5,0.8-1,0.9h-2.4c-0.6,0-1-0.5-1-1v-18.4c0-1.7-0.1-3.7-0.9-5.2c-0.9-1.7-2.5-2.9-4.2-2.9c-1.8,0.1-3.5,1.4-4.6,3
		c-1.4,2-1.6,4.5-1.6,7v16.5c0,0.6-0.4,1-1,1h-2.7V152.4z"/>
	<path d="M235.1,153c-7.9,0-11.5-8.1-11.5-16.2c0-8.5,4.2-15.9,12.2-15.9h0.4c7.8,0,11.6,7.9,11.6,15.9c0,8.6-4.3,16.1-12.3,16.1
		L235.1,153L235.1,153z M235.6,149c2.6-0.1,4.7-1.7,5.9-4.4c1.1-2.4,1.3-5.2,1.3-7.9c0-2.9-0.3-5.9-1.7-8.4
		c-1.2-2.2-3.3-3.5-5.5-3.6c-2.5,0.1-4.7,1.8-5.8,4.3c-1,2.2-1.3,5.2-1.3,7.7c0,2.8,0.4,6,1.5,8.4S233.3,148.9,235.6,149L235.6,149z
		"/>
	<path d="M210.3,148.9c3.6-0.1,5.4-3,6.2-6.7c0.2-0.5,0.5-0.8,1-0.8h2.4c0.6,0,1.1,0.4,1,1c-1.1,6.3-4.9,10.6-10.3,10.6h-0.4
		c-7.9,0-11.3-7.9-11.3-15.9s3.4-16.1,11.3-16.1h0.4c5.5,0,9.4,4.2,10.2,10.5c0,0.5-0.4,0.9-1,0.9h-2.5c-0.5-0.1-0.9-0.5-0.9-1
		c-0.6-3.5-2.6-6.3-6-6.4c-5.4,0.2-6.9,6.8-6.9,11.8C203.6,141.6,204.9,148.7,210.3,148.9L210.3,148.9z"/>
	<path d="M98.3,138.6v-1.2c-4.1,0-8.3,0.9-8.3,5.6c0,2.4,1.3,4.1,3.4,4.1c1.6,0,3-1,3.9-2.5C98.3,142.6,98.3,140.8,98.3,138.6
		L98.3,138.6z M103.8,152.3c-0.4,0.3-0.9,0.4-1.3,0.1c-1.9-1.5-2.2-2.3-3.2-3.7c-3.1,3.1-5.2,4.1-9.2,4.1c-4.7,0-8.4-2.9-8.4-8.7
		c0-4.5,2.5-7.6,6-9.1c3-1.3,7.3-1.6,10.5-1.9v-0.7c0-1.3,0.1-2.9-0.7-4.1c-0.7-1-2-1.5-3.1-1.5c-2.1,0-4,1.1-4.5,3.4
		c-0.1,0.5-0.5,1-1,1l-5.4-0.6c-0.5-0.1-1-0.5-0.8-1.2c1.2-6.6,7.2-8.6,12.5-8.6c2.7,0,6.3,0.7,8.4,2.8c2.7,2.5,2.5,5.9,2.5,9.6v8.7
		c0,2.6,1.1,3.8,2.1,5.2c0.4,0.5,0.4,1.1,0,1.5C107.1,149.5,104.9,151.3,103.8,152.3L103.8,152.3L103.8,152.3z"/>
	<path d="M24.9,138.6v-1.2c-4,0-8.3,0.9-8.3,5.6c0,2.4,1.3,4.1,3.4,4.1c1.6,0,3-1,3.9-2.5C25,142.6,24.9,140.8,24.9,138.6
		L24.9,138.6z M30.5,152.3c-0.4,0.3-0.9,0.4-1.3,0.1c-1.9-1.5-2.2-2.3-3.2-3.7c-3.1,3.1-5.2,4.1-9.2,4.1c-4.7,0-8.4-2.9-8.4-8.7
		c0-4.5,2.5-7.6,6-9.1c3-1.3,7.3-1.6,10.5-1.9v-0.7c0-1.3,0.1-2.9-0.7-4.1c-0.7-1-2-1.5-3.1-1.5c-2.1,0-4,1.1-4.5,3.4
		c-0.1,0.5-0.5,1-1,1l-5.4-0.6c-0.5-0.1-1-0.5-0.8-1.2c1.3-6.6,7.2-8.6,12.5-8.6c2.7,0,6.3,0.7,8.4,2.8c2.7,2.5,2.5,5.9,2.5,9.6v8.7
		c0,2.6,1.1,3.8,2.1,5.2c0.4,0.5,0.4,1.1,0,1.5C33.7,149.5,31.6,151.3,30.5,152.3L30.5,152.3L30.5,152.3z"/>
	<g>
		<path d="M147.8,175.1l-0.1-1.5c-0.2,0.5-0.6,0.8-1.2,1.2c-0.6,0.3-1.2,0.5-1.9,0.5c-0.6,0-1.2-0.1-1.7-0.4
			c-0.5-0.3-0.9-0.6-1.2-1.1s-0.4-1-0.4-1.6c0-1.1,0.5-1.9,1.5-2.5c0.8-0.4,1.9-0.6,3.5-0.6c0.4,0,0.8,0,1.3,0.1c0-0.1,0-0.2,0-0.3
			c0-0.6-0.2-1.1-0.5-1.4c-0.4-0.3-0.9-0.5-1.7-0.5c-0.5,0-1.1,0.1-1.6,0.3c-0.6,0.2-1,0.5-1.4,0.8l-0.1-2.2
			c0.3-0.2,0.8-0.3,1.5-0.5c0.7-0.1,1.3-0.2,2-0.2c0.8,0,1.5,0.1,2.1,0.3c0.6,0.2,1,0.6,1.4,1c0.2,0.3,0.4,0.8,0.5,1.3
			s0.1,1.3,0.1,2.3v1.5v1.4v1.5v0.6L147.8,175.1L147.8,175.1z M147.6,170.7c-0.3,0-0.5,0-0.6,0c-0.6,0-1.2,0.1-1.7,0.2
			c-0.5,0.1-0.9,0.3-1.1,0.6c-0.2,0.3-0.4,0.6-0.4,0.9c0,0.4,0.1,0.7,0.4,0.9c0.3,0.2,0.6,0.4,1.1,0.4c0.4,0,0.8-0.1,1.2-0.4
			c0.4-0.2,0.7-0.6,0.9-1C147.6,171.9,147.6,171.3,147.6,170.7z"/>
		<path d="M154.9,165.3l0.1,1.5c0.7-1.1,1.8-1.7,3.2-1.7c0.5,0,1,0.1,1.4,0.2c0.4,0.2,0.8,0.4,1,0.6c0.3,0.3,0.5,0.6,0.6,0.9
			c0.1,0.3,0.2,0.8,0.3,1.4c0,0.3,0,1,0,2.2v4.6H159v-4.9c0-1.1-0.1-1.8-0.3-2.2c-0.3-0.6-0.8-0.8-1.4-0.8c-0.4,0-0.8,0.1-1.2,0.4
			c-0.4,0.2-0.6,0.6-0.8,1s-0.3,1.1-0.3,1.9v4.7h-2.6v-7.9c0-0.7,0-1.3-0.1-1.9C152.3,165.3,154.9,165.3,154.9,165.3z"/>
		<path d="M170.8,166.7v-5.9h2.5v14.3h-2.4v-1.4c-0.3,0.5-0.8,0.9-1.3,1.1c-0.5,0.3-1.1,0.4-1.8,0.4c-0.5,0-1-0.1-1.4-0.3
			c-0.4-0.2-0.8-0.4-1-0.6c-0.3-0.2-0.5-0.5-0.8-0.9c-0.2-0.4-0.4-0.9-0.6-1.5c-0.1-0.6-0.2-1.2-0.2-1.9c0-1.5,0.4-2.7,1.1-3.6
			c0.7-0.9,1.7-1.3,2.9-1.3c0.7,0,1.2,0.1,1.7,0.4C169.9,165.8,170.4,166.2,170.8,166.7z M168.4,167.2c-0.6,0-1.1,0.2-1.5,0.7
			s-0.6,1.2-0.6,2.3s0.2,1.8,0.7,2.3s0.9,0.7,1.5,0.7c0.6,0,1.1-0.3,1.6-0.8c0.4-0.5,0.7-1.3,0.7-2.3c0-0.9-0.2-1.6-0.6-2.2
			C169.8,167.5,169.3,167.2,168.4,167.2z"/>
		<path d="M187.8,165.3h2.6l-3.9,10.5l-0.5,1.1c-0.2,0.5-0.5,0.9-0.7,1.2c-0.3,0.3-0.7,0.6-1.1,0.8c-0.5,0.2-1,0.3-1.5,0.3
			c-0.2,0-0.5,0-0.9-0.1c-0.3,0-0.6-0.1-0.8-0.2l0.2-1.9c0.4,0.1,0.8,0.2,1.2,0.2s0.8-0.1,1.1-0.4s0.6-0.7,0.7-1.2l-3.8-10.3h2.8
			l2.4,7.2L187.8,165.3z"/>
		<path d="M201.1,170.4c0,0.6-0.1,1.2-0.3,1.8c-0.2,0.6-0.5,1.2-0.9,1.6c-0.4,0.5-0.9,0.9-1.6,1.2c-0.7,0.3-1.4,0.5-2.3,0.5
			c-1.5,0-2.7-0.5-3.7-1.4c-1-1-1.4-2.2-1.4-3.7s0.5-2.8,1.4-3.8c1-1,2.2-1.5,3.7-1.5s2.7,0.5,3.7,1.5
			C200.6,167.5,201.1,168.7,201.1,170.4z M193.6,170.2c0,1.1,0.2,1.9,0.7,2.4c0.5,0.6,1,0.8,1.7,0.8c0.8,0,1.4-0.3,1.8-0.9
			c0.4-0.6,0.7-1.4,0.7-2.3c0-0.8-0.2-1.6-0.6-2.3c-0.4-0.7-1-1-1.8-1c-0.4,0-0.7,0.1-0.9,0.2c-0.2,0.1-0.5,0.3-0.7,0.6
			c-0.2,0.3-0.4,0.6-0.5,0.9C193.6,169.2,193.6,169.7,193.6,170.2z"/>
		<path d="M203.3,165.3h2.6v4.8v0.9c0,0.7,0.1,1.2,0.3,1.5c0.3,0.5,0.8,0.7,1.4,0.7c0.4,0,0.7-0.1,1-0.3c0.3-0.2,0.5-0.4,0.7-0.7
			c0.2-0.3,0.3-0.7,0.4-1.2c0-0.2,0.1-0.6,0.1-1.2v-4.5h2.6v6l0.1,3.2l0.1,0.6h-2.5l-0.1-1.5c-0.3,0.5-0.7,0.9-1.3,1.2
			c-0.5,0.3-1.2,0.5-1.9,0.5c-0.5,0-1-0.1-1.4-0.2s-0.7-0.3-1-0.6c-0.3-0.2-0.5-0.5-0.6-0.8c-0.1-0.3-0.2-0.7-0.3-1.3
			c0-0.4-0.1-1.1-0.1-2.2v-4.9H203.3z"/>
		<path d="M215.4,161.9h2.8l-1.7,4.8h-2.3L215.4,161.9z"/>
		<path d="M219.8,165.3h2.3v2.5c0.2-0.8,0.5-1.4,1-1.9s1.1-0.7,1.8-0.7c0.2,0,0.5,0,0.7,0.1v2.4c-0.2-0.1-0.5-0.2-0.8-0.2
			c-0.5,0-0.8,0.1-1.2,0.3c-0.3,0.2-0.6,0.4-0.8,0.7c-0.2,0.3-0.3,0.6-0.4,1c-0.1,0.4-0.1,0.9-0.1,1.5v4h-2.6v-6.8l-0.1-2.7
			L219.8,165.3z"/>
		<path d="M235.9,171h-6.6c0,0.4,0.2,0.9,0.4,1.2c0.3,0.4,0.6,0.7,1,0.9s0.9,0.3,1.5,0.3c0.5,0,1-0.1,1.5-0.2s1-0.4,1.6-0.7v2.1
			c-0.2,0.2-0.7,0.3-1.3,0.5c-0.7,0.2-1.4,0.3-2.1,0.3c-1,0-2-0.2-2.7-0.6c-0.8-0.4-1.4-1-1.8-1.8c-0.4-0.8-0.6-1.7-0.6-2.8
			c0-1,0.2-2,0.6-2.8c0.4-0.8,1-1.4,1.7-1.8c0.8-0.4,1.6-0.6,2.5-0.6c1,0,1.8,0.2,2.5,0.7s1.2,1.1,1.4,2c0.3,0.8,0.4,1.8,0.4,2.8
			C235.9,170.6,235.9,170.8,235.9,171z M229.1,169.2h4.3c0-0.8-0.2-1.4-0.6-1.8c-0.4-0.4-0.9-0.6-1.5-0.6s-1,0.2-1.4,0.5
			C229.4,167.8,229.3,168.5,229.1,169.2z"/>
		<path d="M249.8,166.7v-5.9h2.5v14.3h-2.4v-1.4c-0.3,0.5-0.8,0.9-1.3,1.1c-0.5,0.3-1.1,0.4-1.8,0.4c-0.5,0-1-0.1-1.4-0.3
			c-0.4-0.2-0.8-0.4-1-0.6c-0.3-0.2-0.5-0.5-0.8-0.9c-0.2-0.4-0.4-0.9-0.6-1.5c-0.1-0.6-0.2-1.2-0.2-1.9c0-1.5,0.4-2.7,1.1-3.6
			c0.7-0.9,1.7-1.3,2.9-1.3c0.7,0,1.2,0.1,1.7,0.4C248.9,165.8,249.4,166.2,249.8,166.7z M247.4,167.2c-0.6,0-1.1,0.2-1.5,0.7
			s-0.6,1.2-0.6,2.3s0.2,1.8,0.7,2.3s0.9,0.7,1.5,0.7s1.1-0.3,1.6-0.8c0.4-0.5,0.7-1.3,0.7-2.3c0-0.9-0.2-1.6-0.6-2.2
			C248.8,167.5,248.1,167.2,247.4,167.2z"/>
		<path d="M264.5,170.4c0,0.6-0.1,1.2-0.3,1.8c-0.2,0.6-0.5,1.2-0.9,1.6c-0.4,0.5-0.9,0.9-1.6,1.2c-0.7,0.3-1.4,0.5-2.3,0.5
			c-1.5,0-2.7-0.5-3.7-1.4c-1-1-1.4-2.2-1.4-3.7s0.5-2.8,1.4-3.8c1-1,2.2-1.5,3.7-1.5s2.7,0.5,3.7,1.5
			C264,167.5,264.5,168.7,264.5,170.4z M257,170.2c0,1.1,0.2,1.9,0.7,2.4c0.5,0.6,1,0.8,1.7,0.8c0.8,0,1.4-0.3,1.8-0.9
			c0.4-0.6,0.7-1.4,0.7-2.3c0-0.8-0.2-1.6-0.6-2.3c-0.4-0.7-1-1-1.8-1c-0.4,0-0.7,0.1-0.9,0.2c-0.2,0.1-0.5,0.3-0.7,0.6
			c-0.2,0.3-0.4,0.6-0.5,0.9C257,169.2,257,169.7,257,170.2z"/>
		<path d="M269,165.3l0.1,1.5c0.7-1.1,1.8-1.7,3.2-1.7c0.5,0,1,0.1,1.4,0.2c0.4,0.2,0.8,0.4,1,0.6c0.3,0.3,0.5,0.6,0.6,0.9
			s0.2,0.8,0.3,1.4c0,0.3,0,1,0,2.2v4.6H273v-4.9c0-1.1-0.1-1.8-0.3-2.2c-0.3-0.6-0.8-0.8-1.4-0.8c-0.4,0-0.8,0.1-1.2,0.4
			c-0.4,0.2-0.6,0.6-0.8,1s-0.3,1.1-0.3,1.9v4.7h-2.6v-7.9c0-0.7,0-1.3-0.1-1.9C266.3,165.3,269,165.3,269,165.3z"/>
		<path d="M286.9,171h-6.6c0,0.4,0.2,0.9,0.4,1.2c0.3,0.4,0.6,0.7,1,0.9s0.9,0.3,1.5,0.3c0.5,0,1-0.1,1.5-0.2s1-0.4,1.6-0.7v2.1
			c-0.2,0.2-0.7,0.3-1.3,0.5c-0.7,0.2-1.4,0.3-2.1,0.3c-1,0-2-0.2-2.7-0.6c-0.8-0.4-1.4-1-1.8-1.8c-0.4-0.8-0.6-1.7-0.6-2.8
			c0-1,0.2-2,0.6-2.8c0.4-0.8,1-1.4,1.7-1.8c0.8-0.4,1.6-0.6,2.5-0.6c1,0,1.8,0.2,2.5,0.7s1.2,1.1,1.4,2c0.3,0.8,0.4,1.8,0.4,2.8
			C286.9,170.6,286.9,170.8,286.9,171z M280.1,169.2h4.3c0-0.8-0.2-1.4-0.6-1.8c-0.4-0.4-0.9-0.6-1.5-0.6c-0.6,0-1,0.2-1.4,0.5
			C280.5,167.8,280.3,168.5,280.1,169.2z"/>
		<path d="M288.9,175.1v-2.6h2.7v2.6H288.9z"/>
	</g>
</g>
</svg>
