<?xml version="1.0" encoding="UTF-8" standalone="no"?>
<!-- Created with Inkscape (http://www.inkscape.org/) -->

<svg
   version="1.1"
   id="svg2"
   width="25"
   height="25"
   viewBox="300 300 500 10"
   sodipodi:docname="plin-seeklogo.ai"
   xmlns:inkscape="http://www.inkscape.org/namespaces/inkscape"
   xmlns:sodipodi="http://sodipodi.sourceforge.net/DTD/sodipodi-0.dtd"
   xmlns="http://www.w3.org/2000/svg"
   xmlns:svg="http://www.w3.org/2000/svg">
  <defs
     id="defs6">
    <linearGradient
       x1="0"
       y1="0"
       x2="1"
       y2="0"
       gradientUnits="userSpaceOnUse"
       gradientTransform="matrix(274.87692,274.87692,274.87692,-274.87692,256.84439,192.61099)"
       spreadMethod="pad"
       id="linearGradient30">
      <stop
         style="stop-opacity:1;stop-color:#2982f8"
         offset="0"
         id="stop22" />
      <stop
         style="stop-opacity:1;stop-color:#10bcdf"
         offset="0.329536"
         id="stop24" />
      <stop
         style="stop-opacity:1;stop-color:#05d7d3"
         offset="0.600627"
         id="stop26" />
      <stop
         style="stop-opacity:1;stop-color:#00e2ce"
         offset="1"
         id="stop28" />
    </linearGradient>
    <clipPath
       clipPathUnits="userSpaceOnUse"
       id="clipPath40">
      <path
         d="M 0,595.276 H 841.89 V 0 H 0 Z"
         id="path38" />
    </clipPath>
  </defs>
  <sodipodi:namedview
     id="namedview4"
     pagecolor="#ffffff"
     bordercolor="#000000"
     borderopacity="0.25"
     inkscape:showpageshadow="2"
     inkscape:pageopacity="0.0"
     inkscape:pagecheckerboard="0"
     inkscape:deskcolor="#d1d1d1" />
  <g
     id="g8"
     inkscape:groupmode="layer"
     inkscape:label="plin-seeklogo"
     transform="matrix(1.3333333,0,0,-1.3333333,0,793.70133)">
    <g
       id="g10">
      <g
         id="g12">
        <g
           id="g18">
          <g
             id="g20">
            <path
               d="m 242.555,347.711 c 0,-19.666 3.389,-38.532 9.552,-56.093 v 0 c 3.862,-22.087 4.386,-31.902 1.53,-47.01 v 0 c -2.045,-10.813 -8.293,-17.881 -7.245,-28.025 v 0 c 0.95,-9.204 1.626,-14.468 9.86,-23.378 v 0 c 9.72,-9.854 18.723,-9.25 21.602,-9.692 v 0 c 10.003,-1.538 17.419,4.138 28.289,5.496 v 0 c 17.1,2.137 29.512,3.308 57.504,-3.689 v 0 c 0.112,-0.028 0.21,-0.038 0.318,-0.062 v 0 c 15.218,-4.488 31.309,-6.936 47.98,-6.936 v 0 c 93.551,0 169.389,75.838 169.389,169.389 v 0 c 0,93.552 -75.838,169.39 -169.389,169.39 v 0 c -93.551,0 -169.39,-75.838 -169.39,-169.39"
               style="fill:url(#linearGradient30);stroke:none"
               id="path32" />
          </g>
        </g>
      </g>
    </g>
    <g
       id="g34">
      <g
         id="g36"
         clip-path="url(#clipPath40)">
        <g
           id="g42"
           transform="translate(446.9195,402.4571)">
          <path
             d="m 0,0 c 0,6.331 -5.132,11.463 -11.463,11.463 -6.331,0 -11.464,-5.132 -11.464,-11.463 0,-6.331 5.133,-11.463 11.464,-11.463 C -5.132,-11.463 0,-6.331 0,0"
             style="fill:#fd71c8;fill-opacity:1;fill-rule:nonzero;stroke:none"
             id="path44" />
        </g>
        <g
           id="g46"
           transform="translate(396.4424,423.6876)">
          <path
             d="m 0,0 c -5.918,0 -10.823,-4.413 -11.409,-10.263 l -0.021,-0.212 v -103.634 l 0.021,-0.213 c 0.586,-5.851 5.492,-10.263 11.409,-10.263 6.342,0 11.502,5.107 11.502,11.384 V -11.384 C 11.502,-5.106 6.342,0 0,0 m 38.682,-36.935 c -4.766,0 -11.547,-2.868 -11.547,-9.398 v -66.868 c 0,-9.371 6.781,-11.384 11.547,-11.384 6.276,0 11.384,5.107 11.384,11.384 v 64.882 c 0,6.277 -5.108,11.384 -11.384,11.384 m 70.351,1.797 c -5.638,0 -10.982,-1.221 -15.749,-3.573 -2.001,-0.986 -6.769,-0.702 -7.966,-0.102 -1.218,0.609 -2.039,1.878 -3.492,1.878 H 68.993 c -2.488,0 -4.45,-2.114 -4.263,-4.594 0.45,-6.012 0.643,-12.319 0.643,-21.091 v -50.581 c 0.1,-4.089 0.504,-4.275 0.504,-4.275 1.796,-4.417 6.784,-7.462 11.917,-7.076 6.046,0.454 10.509,5.907 10.509,11.97 v 39.829 c 0,2.038 0.27,3.997 0.723,5.239 l 0.071,0.212 c 1.78,5.816 7.17,11.683 15.197,11.683 9.31,0 14.03,-6.424 14.03,-19.094 v -38.488 c 0.337,-10.028 7.287,-11.737 12.422,-11.351 6.046,0.454 10.508,5.907 10.508,11.97 v 39.503 c 0,28.004 -17.357,37.941 -32.221,37.941 M -63.69,-106.557 c -8.235,0 -15.206,5.411 -17.396,13.485 -0.001,0.005 -0.002,0.009 -0.003,0.014 -0.295,1.634 -0.553,3.245 -0.553,4.942 v 13.566 c 0,1.539 0.474,3.452 0.845,4.817 2.216,8.6 9.452,14.605 17.597,14.605 13.304,0 19.259,-12.627 19.259,-25.142 0,-16.46 -7.383,-26.287 -19.749,-26.287 m 4.903,71.419 c -6.316,0 -12.091,-1.28 -17.144,-3.76 -6.28,-3.386 -7.186,-0.515 -7.79,0.257 -0.608,0.776 -0.464,1.723 -3.552,1.706 h -10.783 c 0,0 -7.34,0.422 -7.004,-4.461 0,0 0.649,-15.762 0.649,-25.636 v -77.929 c 0,-5.996 4.368,-11.401 10.339,-11.936 6.746,-0.606 12.43,4.714 12.43,11.336 v 18.682 c 0,2.789 2.872,4.766 5.413,3.612 4.49,-2.039 9.589,-3.116 14.99,-3.116 19.376,0 40.229,14.634 40.229,46.767 0,25.773 -15.887,44.478 -37.777,44.478"
             style="fill:#ffffff;fill-opacity:1;fill-rule:nonzero;stroke:none"
             id="path48" />
        </g>
        <path
           d="m 354.481,85.497 h -2.97 v 2.97 h 2.97 z M 349.97,68.691 c -0.786,0.407 -1.385,0.997 -1.797,1.769 -0.412,0.773 -0.618,1.705 -0.618,2.797 v 0.014 c 0,0.657 0.086,1.249 0.257,1.776 0.171,0.527 0.379,0.985 0.625,1.374 0.245,0.389 0.58,0.86 1.006,1.415 0.462,0.593 0.837,1.117 1.124,1.575 0.287,0.458 0.527,1.009 0.722,1.653 0.194,0.642 0.291,1.384 0.291,2.226 h 2.831 c 0,-0.98 -0.111,-1.854 -0.333,-2.622 -0.222,-0.768 -0.491,-1.416 -0.805,-1.943 -0.314,-0.528 -0.727,-1.134 -1.235,-1.819 -0.37,-0.508 -0.661,-0.927 -0.874,-1.256 -0.213,-0.328 -0.389,-0.693 -0.528,-1.096 -0.138,-0.403 -0.208,-0.834 -0.208,-1.297 v -0.015 c 0,-0.804 0.206,-1.428 0.617,-1.873 0.412,-0.444 0.988,-0.666 1.728,-0.666 0.75,0 1.331,0.276 1.742,0.825 0.412,0.551 0.622,1.331 0.632,2.339 v 0.014 h 2.873 v -0.014 c -0.038,-1.221 -0.269,-2.264 -0.694,-3.13 -0.426,-0.865 -1.023,-1.524 -1.791,-1.977 -0.768,-0.453 -1.679,-0.68 -2.734,-0.68 -1.101,0 -2.045,0.203 -2.831,0.611"
           style="fill:#4d4d4d;fill-opacity:1;fill-rule:nonzero;stroke:none"
           id="path50" />
        <path
           d="m 363.446,92.464 h 2.832 V 73.937 h -2.832 z m -5.704,1.651 h 14.239 v -2.692 h -14.239 z"
           style="fill:#4d4d4d;fill-opacity:1;fill-rule:nonzero;stroke:none"
           id="path52" />
        <path
           d="m 376.131,76.629 h 11.588 v -2.692 h -11.588 z m 0,8.674 h 10.062 v -2.692 h -10.062 z m 0,8.812 h 11.588 v -2.692 h -11.588 z m -1.374,0 h 2.831 V 73.936 h -2.831 z"
           style="fill:#4d4d4d;fill-opacity:1;fill-rule:nonzero;stroke:none"
           id="path54" />
        <g
           id="g56"
           transform="translate(402.6802,74.006)">
          <path
             d="m 0,0 c -0.87,0.185 -1.682,0.463 -2.436,0.833 -0.754,0.37 -1.46,0.832 -2.116,1.388 l 1.762,2.165 c 0.768,-0.666 1.615,-1.166 2.54,-1.499 0.925,-0.333 1.929,-0.5 3.012,-0.5 1.462,0 2.595,0.271 3.4,0.812 0.805,0.541 1.207,1.307 1.207,2.297 V 5.51 C 7.369,6.213 7.187,6.771 6.821,7.182 6.456,7.594 5.983,7.899 5.405,8.098 4.827,8.297 4.08,8.479 3.164,8.646 3.136,8.655 3.106,8.66 3.074,8.66 3.042,8.66 3.011,8.665 2.984,8.674 L 2.775,8.716 C 1.425,8.947 0.326,9.208 -0.521,9.5 c -0.846,0.291 -1.57,0.823 -2.171,1.596 -0.602,0.772 -0.903,1.871 -0.903,3.296 v 0.014 c 0,1.249 0.28,2.315 0.84,3.198 0.56,0.884 1.376,1.557 2.449,2.02 1.074,0.463 2.365,0.694 3.872,0.694 0.722,0 1.432,-0.079 2.131,-0.236 0.699,-0.157 1.388,-0.391 2.068,-0.701 0.68,-0.31 1.348,-0.7 2.005,-1.173 L 8.16,15.96 c -0.768,0.564 -1.533,0.987 -2.297,1.27 -0.763,0.282 -1.529,0.423 -2.297,0.423 -1.378,0 -2.449,-0.275 -3.212,-0.826 -0.764,-0.55 -1.145,-1.33 -1.145,-2.338 v -0.013 c 0,-0.695 0.196,-1.241 0.59,-1.638 0.393,-0.399 0.883,-0.692 1.471,-0.882 0.587,-0.189 1.404,-0.387 2.449,-0.59 0.037,-0.009 0.072,-0.015 0.104,-0.02 C 3.855,11.341 3.89,11.334 3.927,11.325 3.974,11.315 4.024,11.306 4.08,11.297 4.136,11.288 4.187,11.278 4.233,11.27 5.454,11.02 6.474,10.724 7.293,10.381 8.112,10.039 8.796,9.486 9.347,8.723 9.897,7.959 10.173,6.916 10.173,5.593 V 5.565 C 10.173,4.335 9.881,3.282 9.298,2.408 8.715,1.533 7.871,0.867 6.766,0.409 5.66,-0.049 4.325,-0.277 2.762,-0.277 1.79,-0.277 0.87,-0.185 0,0"
             style="fill:#4d4d4d;fill-opacity:1;fill-rule:nonzero;stroke:none"
             id="path58" />
        </g>
        <path
           d="M 419.431,73.937 H 416.6 v 20.179 h 2.831 z"
           style="fill:#4d4d4d;fill-opacity:1;fill-rule:nonzero;stroke:none"
           id="path60" />
        <g
           id="g62"
           transform="translate(431.1588,83.0968)">
          <path
             d="M 0,0 2.817,0.638 7.979,-9.16 H 4.621 Z m -5.496,2.067 h 6.884 c 0.536,0 1.012,0.13 1.429,0.389 0.416,0.259 0.738,0.627 0.964,1.104 0.227,0.476 0.34,1.024 0.34,1.644 0,0.619 -0.113,1.168 -0.34,1.645 C 3.555,7.325 3.235,7.692 2.824,7.952 2.412,8.211 1.934,8.341 1.388,8.341 h -6.884 v 2.692 h 6.772 c 1.166,0 2.191,-0.241 3.075,-0.721 C 5.234,9.83 5.919,9.147 6.404,8.264 6.891,7.381 7.133,6.36 7.133,5.204 7.133,4.047 6.888,3.027 6.397,2.144 5.907,1.26 5.22,0.578 4.337,0.097 3.453,-0.385 2.433,-0.625 1.276,-0.625 h -6.772 z m -1.235,8.966 H -3.9 V -9.16 h -2.831 z"
             style="fill:#4d4d4d;fill-opacity:1;fill-rule:nonzero;stroke:none"
             id="path64" />
        </g>
        <g
           id="g66"
           transform="translate(440.7339,94.1153)">
          <path
             d="M 0,0 H 3.081 L 7.925,-15.821 12.769,0 H 15.85 L 9.271,-20.179 H 6.579 Z"
             style="fill:#4d4d4d;fill-opacity:1;fill-rule:nonzero;stroke:none"
             id="path68" />
        </g>
        <path
           d="m 462.467,73.937 h -2.831 v 20.179 h 2.831 z"
           style="fill:#4d4d4d;fill-opacity:1;fill-rule:nonzero;stroke:none"
           id="path70" />
        <g
           id="g72"
           transform="translate(476.3394,77.0802)">
          <path
             d="m 0,0 c 0.634,0.375 1.124,0.906 1.472,1.596 0.346,0.689 0.52,1.487 0.52,2.394 v 5.912 c 0,0.907 -0.174,1.704 -0.52,2.394 -0.348,0.689 -0.838,1.222 -1.472,1.597 -0.634,0.374 -1.367,0.561 -2.199,0.561 -0.833,0 -1.567,-0.187 -2.2,-0.561 -0.634,-0.375 -1.124,-0.908 -1.471,-1.597 -0.347,-0.69 -0.521,-1.487 -0.521,-2.394 V 3.99 c 0,-0.907 0.174,-1.705 0.521,-2.394 0.347,-0.69 0.837,-1.221 1.471,-1.596 0.633,-0.375 1.367,-0.562 2.2,-0.562 0.832,0 1.565,0.187 2.199,0.562 m -5.919,-2.429 c -1.073,0.616 -1.903,1.486 -2.491,2.61 -0.588,1.124 -0.881,2.425 -0.881,3.906 v 5.718 c 0,1.48 0.293,2.783 0.881,3.907 0.588,1.124 1.418,1.993 2.491,2.609 1.073,0.615 2.314,0.923 3.72,0.923 1.406,0 2.645,-0.308 3.719,-0.923 1.073,-0.616 1.904,-1.485 2.491,-2.609 0.588,-1.124 0.882,-2.427 0.882,-3.907 V 4.087 C 4.893,2.606 4.599,1.305 4.011,0.181 3.424,-0.943 2.593,-1.813 1.52,-2.429 0.446,-3.044 -0.793,-3.352 -2.199,-3.352 c -1.406,0 -2.647,0.308 -3.72,0.923"
             style="fill:#4d4d4d;fill-opacity:1;fill-rule:nonzero;stroke:none"
             id="path74" />
        </g>
        <path
           d="m 487.407,76.906 h 2.971 v -2.97 h -2.971 z m 0.402,4.83 c 0.223,0.768 0.491,1.415 0.806,1.943 0.314,0.527 0.725,1.134 1.235,1.818 0.369,0.509 0.661,0.928 0.874,1.256 0.213,0.328 0.389,0.694 0.528,1.097 0.138,0.402 0.208,0.835 0.208,1.298 v 0.013 c 0,0.805 -0.207,1.43 -0.618,1.873 -0.412,0.445 -0.988,0.667 -1.728,0.667 -0.749,0 -1.33,-0.275 -1.741,-0.826 -0.412,-0.551 -0.622,-1.33 -0.632,-2.339 v -0.013 h -2.873 v 0.013 c 0.037,1.222 0.268,2.265 0.694,3.13 0.426,0.865 1.023,1.525 1.79,1.978 0.769,0.453 1.68,0.68 2.734,0.68 1.101,0 2.045,-0.204 2.832,-0.611 0.786,-0.407 1.385,-0.997 1.796,-1.77 0.413,-0.772 0.619,-1.704 0.619,-2.795 v -0.015 c 0,-0.656 -0.086,-1.249 -0.257,-1.776 -0.171,-0.528 -0.38,-0.986 -0.625,-1.373 -0.245,-0.389 -0.58,-0.862 -1.006,-1.417 -0.463,-0.591 -0.837,-1.117 -1.124,-1.575 -0.287,-0.458 -0.527,-1.008 -0.722,-1.651 -0.194,-0.644 -0.291,-1.386 -0.291,-2.228 h -2.832 c 0,0.981 0.111,1.855 0.333,2.623"
           style="fill:#4d4d4d;fill-opacity:1;fill-rule:nonzero;stroke:none"
           id="path76" />
        <g
           id="g78"
           transform="translate(388.9547,55.8204)">
          <path
             d="M 0,0 V -5.409 H -1.867 V 0 l -4.055,7.899 h 2.078 l 2.91,-6.004 2.911,6.004 h 2.078 z"
             style="fill:#4d4d4d;fill-opacity:1;fill-rule:nonzero;stroke:none"
             id="path80" />
        </g>
        <g
           id="g82"
           transform="translate(399.1055,56.4337)">
          <path
             d="M 0,0 C 0,0.623 -0.166,1.106 -0.499,1.451 -0.832,1.796 -1.303,1.968 -1.913,1.968 -2.292,1.968 -2.662,1.91 -3.025,1.794 -3.388,1.679 -3.71,1.517 -3.991,1.31 l -1.363,0.933 c 0.359,0.433 0.834,0.77 1.423,1.011 0.589,0.241 1.243,0.362 1.963,0.362 0.787,0 1.462,-0.139 2.023,-0.417 C 0.616,2.922 1.043,2.519 1.336,1.991 1.629,1.463 1.776,0.827 1.776,0.083 V -6.022 H 0 Z m -4.952,-5.432 c -0.58,0.485 -0.869,1.222 -0.869,2.21 0,0.94 0.265,1.645 0.796,2.115 0.531,0.469 1.333,0.705 2.407,0.705 H 0.083 L 0.21,-1.903 h -2.818 c -0.489,0 -0.853,-0.109 -1.094,-0.326 -0.241,-0.216 -0.362,-0.547 -0.362,-0.993 0,-0.482 0.16,-0.839 0.481,-1.071 0.32,-0.231 0.807,-0.348 1.459,-0.348 0.714,0 1.247,0.077 1.598,0.23 C -0.175,-4.259 0,-4.021 0,-3.697 L 0.192,-5.034 C 0.027,-5.29 -0.175,-5.501 -0.417,-5.665 -0.658,-5.83 -0.937,-5.954 -1.254,-6.036 -1.571,-6.118 -1.928,-6.16 -2.325,-6.16 c -1.172,0 -2.047,0.243 -2.627,0.728"
             style="fill:#4d4d4d;fill-opacity:1;fill-rule:nonzero;stroke:none"
             id="path84" />
        </g>
        <g
           id="g86"
           transform="translate(406.4278,50.6993)">
          <path
             d="m 0,0 c -0.439,0.284 -0.763,0.686 -0.97,1.204 l 0.128,1.986 c 0,-0.409 0.073,-0.756 0.219,-1.044 C -0.476,1.859 -0.264,1.64 0.014,1.487 0.292,1.335 0.628,1.259 1.025,1.259 c 0.617,0 1.094,0.187 1.433,0.562 0.338,0.376 0.508,0.906 0.508,1.589 v 2.059 c 0,0.696 -0.17,1.236 -0.508,1.62 C 2.119,7.474 1.642,7.666 1.025,7.666 0.628,7.666 0.292,7.593 0.014,7.446 -0.264,7.3 -0.476,7.085 -0.623,6.801 -0.769,6.518 -0.842,6.177 -0.842,5.78 l -0.192,1.831 c 0.286,0.555 0.662,0.984 1.125,1.286 0.464,0.302 0.98,0.454 1.547,0.454 0.672,0 1.247,-0.152 1.726,-0.454 C 3.843,8.595 4.208,8.154 4.458,7.574 4.708,6.995 4.833,6.296 4.833,5.479 V 3.41 C 4.833,2.604 4.705,1.915 4.448,1.341 4.192,0.768 3.817,0.33 3.323,0.027 2.828,-0.274 2.236,-0.426 1.547,-0.426 0.955,-0.426 0.439,-0.283 0,0 m -2.709,9.213 h 1.867 V -4.15 h -1.867 z"
             style="fill:#4d4d4d;fill-opacity:1;fill-rule:nonzero;stroke:none"
             id="path88" />
        </g>
        <g
           id="g90"
           transform="translate(415.5538,50.7687)">
          <path
             d="m 0,0 c -0.623,0.329 -1.097,0.812 -1.423,1.45 -0.327,0.638 -0.49,1.408 -0.49,2.312 v 1.07 c 0,0.94 0.157,1.742 0.471,2.407 0.315,0.665 0.771,1.172 1.369,1.52 0.597,0.347 1.318,0.522 2.16,0.522 0.793,0 1.47,-0.199 2.032,-0.595 C 4.68,8.289 5.109,7.716 5.405,6.965 5.701,6.215 5.849,5.314 5.849,4.265 V 3.643 H -0.559 V 5.144 H 4.073 C 4.018,5.919 3.818,6.521 3.474,6.951 3.129,7.382 2.667,7.597 2.087,7.597 1.379,7.597 0.831,7.364 0.444,6.901 0.056,6.437 -0.137,5.781 -0.137,4.933 V 3.725 C -0.137,2.938 0.07,2.334 0.485,1.912 0.9,1.491 1.489,1.281 2.251,1.281 2.63,1.281 3.005,1.357 3.377,1.51 3.75,1.662 4.082,1.876 4.375,2.15 L 5.602,0.924 C 5.132,0.473 4.604,0.123 4.018,-0.124 3.432,-0.371 2.843,-0.495 2.251,-0.495 1.373,-0.495 0.622,-0.33 0,0"
             style="fill:#4d4d4d;fill-opacity:1;fill-rule:nonzero;stroke:none"
             id="path92" />
        </g>
        <g
           id="g94"
           transform="translate(429.3287,56.4337)">
          <path
             d="M 0,0 C 0,0.623 -0.166,1.106 -0.499,1.451 -0.831,1.796 -1.303,1.968 -1.913,1.968 -2.291,1.968 -2.662,1.91 -3.025,1.794 -3.388,1.679 -3.71,1.517 -3.99,1.31 l -1.364,0.933 c 0.36,0.433 0.833,0.77 1.422,1.011 0.589,0.241 1.244,0.362 1.964,0.362 0.787,0 1.461,-0.139 2.023,-0.417 C 0.616,2.922 1.044,2.519 1.337,1.991 1.629,1.463 1.775,0.827 1.775,0.083 V -6.022 H 0 Z m -4.952,-5.432 c -0.579,0.485 -0.869,1.222 -0.869,2.21 0,0.94 0.265,1.645 0.796,2.115 0.531,0.469 1.334,0.705 2.407,0.705 h 2.7 l 0.129,-1.501 h -2.819 c -0.489,0 -0.853,-0.109 -1.094,-0.326 -0.241,-0.216 -0.361,-0.547 -0.361,-0.993 0,-0.482 0.16,-0.839 0.48,-1.071 0.32,-0.231 0.807,-0.348 1.46,-0.348 0.714,0 1.246,0.077 1.597,0.23 C -0.176,-4.259 0,-4.021 0,-3.697 L 0.192,-5.034 C 0.027,-5.29 -0.176,-5.501 -0.416,-5.665 -0.657,-5.83 -0.937,-5.954 -1.254,-6.036 -1.571,-6.118 -1.928,-6.16 -2.325,-6.16 c -1.171,0 -2.047,0.243 -2.627,0.728"
             style="fill:#4d4d4d;fill-opacity:1;fill-rule:nonzero;stroke:none"
             id="path96" />
        </g>
        <g
           id="g98"
           transform="translate(445.2925,56.1681)">
          <path
             d="m 0,0 c 0,0.672 -0.174,1.19 -0.521,1.557 -0.348,0.366 -0.836,0.548 -1.465,0.548 -0.58,0 -1.029,-0.176 -1.346,-0.53 C -3.649,1.221 -3.808,0.721 -3.808,0.073 l -0.375,1.831 c 0.299,0.629 0.694,1.116 1.185,1.46 0.491,0.345 1.033,0.518 1.625,0.518 0.684,0 1.268,-0.152 1.753,-0.453 C 0.865,3.126 1.234,2.686 1.487,2.105 1.74,1.526 1.867,0.827 1.867,0.01 v -5.767 l -1.867,0 z m -5.675,0 c 0,0.672 -0.165,1.19 -0.494,1.557 -0.33,0.366 -0.797,0.548 -1.4,0.548 C -8.18,2.105 -8.651,1.944 -8.983,1.62 -9.316,1.297 -9.482,0.843 -9.482,0.257 l -0.193,1.83 c 0.293,0.574 0.676,1.017 1.149,1.328 0.472,0.311 0.996,0.467 1.57,0.467 0.665,0 1.232,-0.152 1.702,-0.453 0.47,-0.303 0.828,-0.743 1.075,-1.324 0.247,-0.579 0.371,-1.278 0.371,-2.095 v -5.767 h -1.867 z m -5.675,3.744 h 1.867 v -9.501 h -1.867 z"
             style="fill:#4d4d4d;fill-opacity:1;fill-rule:nonzero;stroke:none"
             id="path100" />
        </g>
        <g
           id="g102"
           transform="translate(451.6353,50.7687)">
          <path
             d="m 0,0 c -0.622,0.329 -1.097,0.812 -1.423,1.45 -0.326,0.638 -0.49,1.408 -0.49,2.312 v 1.07 c 0,0.94 0.157,1.742 0.472,2.407 0.314,0.665 0.77,1.172 1.368,1.52 0.598,0.347 1.318,0.522 2.16,0.522 0.794,0 1.471,-0.199 2.032,-0.595 C 4.681,8.289 5.109,7.716 5.405,6.965 5.701,6.215 5.85,5.314 5.85,4.265 V 3.643 H -0.558 V 5.144 H 4.073 C 4.019,5.919 3.818,6.521 3.474,6.951 3.129,7.382 2.667,7.597 2.087,7.597 1.379,7.597 0.832,7.364 0.444,6.901 0.057,6.437 -0.137,5.781 -0.137,4.933 V 3.725 C -0.137,2.938 0.07,2.334 0.485,1.912 0.9,1.491 1.489,1.281 2.252,1.281 2.63,1.281 3.006,1.357 3.378,1.51 3.75,1.662 4.083,1.876 4.376,2.15 L 5.603,0.924 C 5.132,0.473 4.604,0.123 4.019,-0.124 3.433,-0.371 2.844,-0.495 2.252,-0.495 1.373,-0.495 0.623,-0.33 0,0"
             style="fill:#4d4d4d;fill-opacity:1;fill-rule:nonzero;stroke:none"
             id="path104" />
        </g>
        <g
           id="g106"
           transform="translate(381.4952,38.7013)">
          <path
             d="m 0,0 c 0.32,0.396 0.48,0.955 0.48,1.675 v 0.01 c 0,0.701 -0.16,1.244 -0.48,1.628 -0.32,0.385 -0.773,0.578 -1.359,0.578 -0.592,0 -1.048,-0.193 -1.369,-0.578 -0.32,-0.384 -0.48,-0.93 -0.48,-1.638 V 1.666 c 0,-0.72 0.16,-1.277 0.48,-1.671 0.321,-0.393 0.777,-0.59 1.369,-0.59 0.586,0 1.039,0.199 1.359,0.595 m -0.087,-1.153 -0.009,-0.329 c -0.153,-0.282 -0.383,-0.488 -0.691,-0.619 -0.308,-0.13 -0.673,-0.196 -1.094,-0.196 -0.635,0 -1.193,0.161 -1.675,0.485 -0.482,0.323 -0.856,0.779 -1.121,1.369 -0.266,0.588 -0.399,1.27 -0.399,2.045 v 0.009 c 0,0.861 0.145,1.596 0.435,2.206 0.29,0.61 0.714,1.074 1.273,1.391 0.558,0.317 1.227,0.477 2.009,0.477 0.781,0 1.449,-0.163 2.004,-0.486 C 1.201,4.876 1.623,4.406 1.913,3.789 2.203,3.173 2.348,2.432 2.348,1.565 V 1.557 C 2.348,1.08 2.287,0.572 2.165,0.032 2.042,-0.508 1.869,-1.043 1.643,-1.574 1.606,-1.653 1.57,-1.734 1.533,-1.816 1.497,-1.899 1.457,-1.98 1.414,-2.06 l -2.837,-5.702 h -2.014 z"
             style="fill:#4d4d4d;fill-opacity:1;fill-rule:nonzero;stroke:none"
             id="path108" />
        </g>
        <g
           id="g110"
           transform="translate(391.2022,38.8526)">
          <path
             d="m 0,0 c 0.287,0.161 0.509,0.392 0.668,0.69 0.159,0.3 0.238,0.645 0.238,1.036 V 1.854 C 0.906,2.226 0.827,2.555 0.668,2.842 0.509,3.129 0.287,3.35 0,3.506 -0.287,3.661 -0.616,3.739 -0.989,3.739 -1.361,3.739 -1.69,3.661 -1.977,3.506 -2.264,3.35 -2.487,3.129 -2.645,2.842 -2.804,2.555 -2.883,2.223 -2.883,1.844 V 1.707 c 0,-0.385 0.079,-0.725 0.238,-1.02 0.158,-0.296 0.381,-0.526 0.668,-0.687 0.287,-0.162 0.616,-0.243 0.988,-0.243 0.373,0 0.702,0.081 0.989,0.243 m 0.156,-6 c 0.329,0.171 0.584,0.41 0.764,0.719 0.18,0.307 0.27,0.663 0.27,1.066 v 0.128 c 0,0.408 -0.09,0.768 -0.27,1.075 -0.18,0.309 -0.435,0.548 -0.764,0.719 -0.33,0.171 -0.711,0.256 -1.145,0.256 -0.433,0 -0.814,-0.085 -1.144,-0.256 -0.329,-0.171 -0.584,-0.412 -0.764,-0.724 -0.18,-0.31 -0.27,-0.671 -0.27,-1.08 v -0.136 c 0,-0.404 0.09,-0.757 0.27,-1.062 0.18,-0.306 0.435,-0.542 0.764,-0.71 0.33,-0.168 0.711,-0.252 1.144,-0.252 0.434,0 0.815,0.086 1.145,0.257 m -3.268,-1.593 c -0.61,0.305 -1.082,0.738 -1.414,1.295 -0.333,0.559 -0.499,1.207 -0.499,1.945 v 0.22 c 0,0.665 0.166,1.291 0.499,1.876 0.332,0.586 0.776,1.028 1.332,1.327 -0.471,0.257 -0.847,0.627 -1.131,1.113 -0.283,0.485 -0.425,0.996 -0.425,1.533 v 0.32 c 0,0.696 0.155,1.308 0.466,1.835 0.311,0.528 0.751,0.938 1.318,1.227 0.568,0.29 1.227,0.435 1.977,0.435 0.751,0 1.41,-0.145 1.978,-0.435 C 1.556,4.809 1.996,4.399 2.307,3.871 2.618,3.344 2.773,2.732 2.773,2.036 V 1.716 C 2.773,1.167 2.628,0.651 2.338,0.169 2.049,-0.313 1.666,-0.679 1.19,-0.93 1.751,-1.234 2.201,-1.679 2.54,-2.261 2.878,-2.844 3.048,-3.468 3.048,-4.133 v -0.22 c 0,-0.738 -0.166,-1.386 -0.499,-1.945 -0.333,-0.557 -0.804,-0.99 -1.414,-1.295 -0.61,-0.304 -1.318,-0.458 -2.124,-0.458 -0.805,0 -1.513,0.154 -2.123,0.458"
             style="fill:#4d4d4d;fill-opacity:1;fill-rule:nonzero;stroke:none"
             id="path112" />
        </g>
        <g
           id="g114"
           transform="translate(401.6597,33.1456)">
          <path
             d="M 0,0 C 0.32,0.366 0.48,0.888 0.48,1.565 V 1.574 C 0.48,2.318 0.312,2.894 -0.023,3.3 -0.358,3.705 -0.837,3.908 -1.46,3.908 -2.015,3.908 -2.445,3.704 -2.75,3.295 -3.056,2.886 -3.208,2.31 -3.208,1.565 V 1.556 c 0,-0.677 0.16,-1.198 0.48,-1.561 0.321,-0.363 0.774,-0.545 1.359,-0.545 0.592,0 1.049,0.184 1.369,0.55 m -3.373,-1.872 c -0.555,0.314 -0.978,0.771 -1.268,1.373 -0.29,0.601 -0.435,1.325 -0.435,2.174 v 0.009 c 0,0.495 0.058,1.013 0.175,1.556 0.115,0.543 0.283,1.077 0.503,1.602 0.037,0.092 0.076,0.181 0.119,0.27 0.043,0.088 0.085,0.175 0.128,0.261 l 2.892,5.73 h 2.014 l -3.396,-6.636 0.01,0.329 c 0.152,0.287 0.375,0.51 0.668,0.668 0.293,0.159 0.634,0.238 1.025,0.238 0.689,0 1.281,-0.155 1.775,-0.467 C 1.332,4.924 1.707,4.471 1.963,3.876 2.22,3.281 2.348,2.565 2.348,1.729 V 1.721 c 0,-0.855 -0.145,-1.587 -0.435,-2.198 -0.29,-0.609 -0.714,-1.073 -1.272,-1.39 -0.558,-0.318 -1.228,-0.477 -2.01,-0.477 -0.78,0 -1.449,0.157 -2.004,0.472"
             style="fill:#4d4d4d;fill-opacity:1;fill-rule:nonzero;stroke:none"
             id="path116" />
        </g>
        <g
           id="g118"
           transform="translate(411.7369,33.0948)">
          <path
             d="m 0,0 c 0.314,0.345 0.472,0.841 0.472,1.487 v 6.051 c 0,0.647 -0.156,1.143 -0.467,1.487 -0.312,0.345 -0.8,0.517 -1.465,0.517 -0.665,0 -1.153,-0.172 -1.464,-0.517 C -3.235,8.681 -3.391,8.185 -3.391,7.538 V 1.487 c 0,-0.646 0.157,-1.142 0.471,-1.487 0.315,-0.345 0.801,-0.517 1.46,-0.517 0.659,0 1.146,0.172 1.46,0.517 m -4.292,-1.295 c -0.645,0.665 -0.966,1.593 -0.966,2.782 v 6.051 c 0,1.195 0.323,2.125 0.97,2.787 0.646,0.662 1.589,0.993 2.828,0.993 1.245,0 2.189,-0.33 2.833,-0.989 C 2.017,9.671 2.339,8.74 2.339,7.538 V 1.487 c 0,-1.195 -0.324,-2.125 -0.97,-2.787 -0.647,-0.662 -1.59,-0.993 -2.829,-0.993 -1.245,0 -2.189,0.333 -2.832,0.998"
             style="fill:#4d4d4d;fill-opacity:1;fill-rule:nonzero;stroke:none"
             id="path120" />
        </g>
        <path
           d="m 422.378,38.766 h 1.821 v -7.835 h -1.821 z m -5.739,-4.165 4.467,9.638 h 1.922 l -4.358,-9.528 h 6.527 v -1.73 h -8.558 z"
           style="fill:#4d4d4d;fill-opacity:1;fill-rule:nonzero;stroke:none"
           id="path122" />
        <g
           id="g124"
           transform="translate(432.3726,38.8526)">
          <path
             d="m 0,0 c 0.287,0.161 0.51,0.392 0.668,0.69 0.159,0.3 0.238,0.645 0.238,1.036 V 1.854 C 0.906,2.226 0.827,2.555 0.668,2.842 0.51,3.129 0.287,3.35 0,3.506 -0.287,3.661 -0.616,3.739 -0.988,3.739 -1.36,3.739 -1.69,3.661 -1.978,3.506 -2.264,3.35 -2.486,3.129 -2.646,2.842 -2.804,2.555 -2.883,2.223 -2.883,1.844 V 1.707 c 0,-0.385 0.079,-0.725 0.237,-1.02 0.16,-0.296 0.382,-0.526 0.668,-0.687 0.288,-0.162 0.618,-0.243 0.99,-0.243 0.372,0 0.701,0.081 0.988,0.243 m 0.155,-6 c 0.33,0.171 0.585,0.41 0.765,0.719 0.18,0.307 0.269,0.663 0.269,1.066 v 0.128 c 0,0.408 -0.089,0.768 -0.269,1.075 -0.18,0.309 -0.435,0.548 -0.765,0.719 -0.329,0.171 -0.711,0.256 -1.143,0.256 -0.434,0 -0.815,-0.085 -1.145,-0.256 -0.329,-0.171 -0.584,-0.412 -0.763,-0.724 -0.181,-0.31 -0.271,-0.671 -0.271,-1.08 v -0.136 c 0,-0.404 0.09,-0.757 0.271,-1.062 0.179,-0.306 0.434,-0.542 0.763,-0.71 0.33,-0.168 0.711,-0.252 1.145,-0.252 0.432,0 0.814,0.086 1.143,0.257 m -3.267,-1.593 c -0.611,0.305 -1.081,0.738 -1.414,1.295 -0.332,0.559 -0.499,1.207 -0.499,1.945 v 0.22 c 0,0.665 0.167,1.291 0.499,1.876 0.333,0.586 0.776,1.028 1.332,1.327 -0.47,0.257 -0.847,0.627 -1.131,1.113 -0.283,0.485 -0.425,0.996 -0.425,1.533 v 0.32 c 0,0.696 0.155,1.308 0.467,1.835 0.31,0.528 0.75,0.938 1.317,1.227 0.568,0.29 1.227,0.435 1.978,0.435 0.75,0 1.409,-0.145 1.976,-0.435 C 1.556,4.809 1.995,4.399 2.307,3.871 2.618,3.344 2.773,2.732 2.773,2.036 V 1.716 C 2.773,1.167 2.628,0.651 2.339,0.169 2.049,-0.313 1.666,-0.679 1.189,-0.93 1.751,-1.234 2.201,-1.679 2.54,-2.261 2.879,-2.844 3.048,-3.468 3.048,-4.133 v -0.22 c 0,-0.738 -0.166,-1.386 -0.499,-1.945 -0.332,-0.557 -0.804,-0.99 -1.414,-1.295 -0.611,-0.304 -1.318,-0.458 -2.123,-0.458 -0.806,0 -1.514,0.154 -2.124,0.458"
             style="fill:#4d4d4d;fill-opacity:1;fill-rule:nonzero;stroke:none"
             id="path126" />
        </g>
        <g
           id="g128"
           transform="translate(444.9039,42.5821)">
          <path
             d="m 0,0 -3.441,-11.643 h -1.987 l 3.442,11.534 H -5.373 V -2.022 H -7.24 V 1.666 H 0 Z"
             style="fill:#4d4d4d;fill-opacity:1;fill-rule:nonzero;stroke:none"
             id="path130" />
        </g>
        <path
           d="m 452.29,38.766 h 1.821 v -7.835 h -1.821 z m -5.74,-4.165 4.467,9.638 h 1.923 l -4.357,-9.528 h 6.526 v -1.73 h -8.559 z"
           style="fill:#4d4d4d;fill-opacity:1;fill-rule:nonzero;stroke:none"
           id="path132" />
        <g
           id="g134"
           transform="translate(462.2857,38.8526)">
          <path
             d="m 0,0 c 0.287,0.161 0.51,0.392 0.668,0.69 0.159,0.3 0.238,0.645 0.238,1.036 V 1.854 C 0.906,2.226 0.827,2.555 0.668,2.842 0.51,3.129 0.287,3.35 0,3.506 -0.287,3.661 -0.616,3.739 -0.988,3.739 -1.36,3.739 -1.69,3.661 -1.978,3.506 -2.264,3.35 -2.486,3.129 -2.646,2.842 -2.804,2.555 -2.883,2.223 -2.883,1.844 V 1.707 c 0,-0.385 0.079,-0.725 0.237,-1.02 0.16,-0.296 0.382,-0.526 0.668,-0.687 0.288,-0.162 0.618,-0.243 0.99,-0.243 0.372,0 0.701,0.081 0.988,0.243 m 0.155,-6 c 0.33,0.171 0.585,0.41 0.765,0.719 0.18,0.307 0.269,0.663 0.269,1.066 v 0.128 c 0,0.408 -0.089,0.768 -0.269,1.075 -0.18,0.309 -0.435,0.548 -0.765,0.719 -0.329,0.171 -0.711,0.256 -1.143,0.256 -0.434,0 -0.815,-0.085 -1.145,-0.256 -0.329,-0.171 -0.584,-0.412 -0.763,-0.724 -0.181,-0.31 -0.271,-0.671 -0.271,-1.08 v -0.136 c 0,-0.404 0.09,-0.757 0.271,-1.062 0.179,-0.306 0.434,-0.542 0.763,-0.71 0.33,-0.168 0.711,-0.252 1.145,-0.252 0.432,0 0.814,0.086 1.143,0.257 m -3.267,-1.593 c -0.611,0.305 -1.081,0.738 -1.414,1.295 -0.332,0.559 -0.499,1.207 -0.499,1.945 v 0.22 c 0,0.665 0.167,1.291 0.499,1.876 0.333,0.586 0.776,1.028 1.332,1.327 -0.47,0.257 -0.847,0.627 -1.131,1.113 -0.283,0.485 -0.425,0.996 -0.425,1.533 v 0.32 c 0,0.696 0.155,1.308 0.467,1.835 0.31,0.528 0.75,0.938 1.317,1.227 0.568,0.29 1.227,0.435 1.978,0.435 0.75,0 1.409,-0.145 1.976,-0.435 C 1.556,4.809 1.995,4.399 2.307,3.871 2.618,3.344 2.773,2.732 2.773,2.036 V 1.716 C 2.773,1.167 2.628,0.651 2.339,0.169 2.049,-0.313 1.666,-0.679 1.189,-0.93 1.751,-1.234 2.201,-1.679 2.54,-2.261 2.879,-2.844 3.048,-3.468 3.048,-4.133 v -0.22 c 0,-0.738 -0.166,-1.386 -0.499,-1.945 -0.332,-0.557 -0.804,-0.99 -1.414,-1.295 -0.611,-0.304 -1.318,-0.458 -2.123,-0.458 -0.806,0 -1.514,0.154 -2.124,0.458"
             style="fill:#4d4d4d;fill-opacity:1;fill-rule:nonzero;stroke:none"
             id="path136" />
        </g>
        <g
           id="g138"
           transform="translate(364.086,13.1974)">
          <path
             d="m 0,0 h 3.606 c 0.946,0 1.635,0.181 2.069,0.54 0.433,0.36 0.65,0.867 0.65,1.52 V 2.087 C 6.325,2.539 6.247,2.927 6.091,3.25 5.936,3.573 5.69,3.822 5.354,3.996 5.019,4.17 4.588,4.257 4.064,4.257 H 0 V 5.94 h 4.064 c 0.689,0 1.209,0.163 1.561,0.486 0.35,0.323 0.526,0.803 0.526,1.437 0,0.665 -0.195,1.162 -0.586,1.491 C 5.174,9.685 4.588,9.85 3.808,9.85 H 0 v 1.729 h 4.146 c 0.861,0 1.581,-0.146 2.16,-0.439 0.58,-0.293 1.013,-0.708 1.3,-1.245 C 7.893,9.358 8.036,8.717 8.036,7.973 8.036,7.516 7.948,7.086 7.771,6.687 7.594,6.287 7.324,5.945 6.961,5.662 6.598,5.378 6.147,5.187 5.611,5.09 6.147,5.01 6.611,4.819 7.002,4.518 7.393,4.216 7.691,3.839 7.899,3.387 8.106,2.936 8.21,2.447 8.21,1.923 V 1.896 C 8.21,1.175 8.051,0.54 7.734,-0.009 7.417,-0.558 6.962,-0.982 6.371,-1.281 5.778,-1.58 5.089,-1.729 4.302,-1.729 H 0 Z M -1.099,11.579 H 0.759 V -1.73 h -1.858 z"
             style="fill:#4d4d4d;fill-opacity:1;fill-rule:nonzero;stroke:none"
             id="path140" />
        </g>
        <g
           id="g142"
           transform="translate(380.2686,17.4903)">
          <path
             d="M 0,0 C 0,0.623 -0.166,1.106 -0.499,1.451 -0.832,1.796 -1.303,1.968 -1.913,1.968 -2.292,1.968 -2.662,1.91 -3.025,1.794 -3.388,1.679 -3.71,1.517 -3.991,1.31 l -1.363,0.933 c 0.359,0.433 0.834,0.77 1.423,1.011 0.589,0.241 1.243,0.362 1.963,0.362 0.787,0 1.462,-0.139 2.023,-0.417 C 0.616,2.922 1.043,2.519 1.336,1.991 1.629,1.463 1.776,0.827 1.776,0.083 V -6.022 H 0 Z m -4.952,-5.432 c -0.58,0.485 -0.869,1.222 -0.869,2.21 0,0.94 0.265,1.645 0.796,2.115 0.531,0.469 1.333,0.705 2.407,0.705 H 0.083 L 0.21,-1.903 h -2.818 c -0.489,0 -0.853,-0.109 -1.094,-0.326 -0.241,-0.216 -0.362,-0.547 -0.362,-0.993 0,-0.482 0.16,-0.839 0.481,-1.071 0.32,-0.231 0.807,-0.348 1.459,-0.348 0.714,0 1.247,0.077 1.598,0.23 C -0.175,-4.259 0,-4.021 0,-3.697 L 0.192,-5.034 C 0.027,-5.29 -0.175,-5.501 -0.417,-5.665 -0.658,-5.83 -0.937,-5.954 -1.254,-6.036 -1.571,-6.118 -1.928,-6.16 -2.325,-6.16 c -1.172,0 -2.047,0.243 -2.627,0.728"
             style="fill:#4d4d4d;fill-opacity:1;fill-rule:nonzero;stroke:none"
             id="path144" />
        </g>
        <g
           id="g146"
           transform="translate(386.6617,11.4952)">
          <path
             d="m 0,0 c -0.491,0.11 -0.95,0.274 -1.377,0.494 -0.428,0.22 -0.821,0.494 -1.181,0.824 l 1.107,1.364 C -0.938,2.291 -0.429,1.998 0.078,1.804 0.584,1.608 1.085,1.511 1.579,1.511 c 0.738,0 1.292,0.114 1.661,0.343 0.369,0.228 0.554,0.572 0.554,1.03 0,0.304 -0.101,0.533 -0.302,0.686 C 3.291,3.723 3.041,3.824 2.742,3.876 2.442,3.929 2.021,3.976 1.479,4.019 1.43,4.019 1.378,4.02 1.323,4.022 1.268,4.026 1.216,4.03 1.167,4.037 1.143,4.037 1.118,4.038 1.094,4.041 1.069,4.044 1.045,4.046 1.021,4.046 0.404,4.095 -0.117,4.185 -0.544,4.315 -0.972,4.447 -1.327,4.692 -1.611,5.053 -1.895,5.413 -2.037,5.928 -2.037,6.6 c 0,0.671 0.138,1.229 0.412,1.674 0.275,0.446 0.684,0.78 1.227,1.002 0.543,0.223 1.223,0.335 2.041,0.335 0.494,0 0.966,-0.046 1.414,-0.137 C 3.506,9.382 3.935,9.246 4.343,9.066 4.752,8.886 5.146,8.659 5.524,8.385 L 4.398,7.021 C 3.922,7.325 3.454,7.555 2.993,7.707 2.532,7.859 2.083,7.936 1.643,7.936 1.008,7.936 0.532,7.827 0.215,7.611 -0.102,7.395 -0.261,7.069 -0.261,6.636 -0.261,6.38 -0.171,6.187 0.009,6.06 0.189,5.932 0.417,5.846 0.691,5.803 0.966,5.761 1.356,5.724 1.863,5.693 1.899,5.687 1.937,5.685 1.977,5.685 c 0.04,0 0.081,-0.004 0.124,-0.01 H 2.156 C 2.174,5.675 2.192,5.672 2.21,5.666 2.875,5.623 3.442,5.534 3.909,5.4 4.375,5.267 4.768,5.001 5.084,4.604 5.402,4.207 5.561,3.634 5.561,2.884 5.561,2.2 5.414,1.634 5.121,1.186 4.829,0.737 4.388,0.399 3.799,0.174 3.21,-0.052 2.47,-0.165 1.579,-0.165 1.018,-0.165 0.491,-0.109 0,0"
             style="fill:#4d4d4d;fill-opacity:1;fill-rule:nonzero;stroke:none"
             id="path148" />
        </g>
        <path
           d="m 394.602,20.969 h 1.867 v -9.501 h -1.867 z m 0,3.807 h 1.867 v -1.867 h -1.867 z"
           style="fill:#4d4d4d;fill-opacity:1;fill-rule:nonzero;stroke:none"
           id="path150" />
        <g
           id="g152"
           transform="translate(401.1739,13.921)">
          <path
             d="M 0,0 C 0,-0.232 0.05,-0.41 0.151,-0.535 0.252,-0.661 0.394,-0.724 0.577,-0.724 H 1.456 V -2.499 H 0.357 c -0.708,0 -1.255,0.22 -1.643,0.659 -0.387,0.44 -0.581,1.059 -0.581,1.859 V 10.855 H 0 Z"
             style="fill:#4d4d4d;fill-opacity:1;fill-rule:nonzero;stroke:none"
             id="path154" />
        </g>
        <path
           d="m 404.735,20.969 h 1.867 v -9.501 h -1.867 z m 0,3.807 h 1.867 v -1.867 h -1.867 z"
           style="fill:#4d4d4d;fill-opacity:1;fill-rule:nonzero;stroke:none"
           id="path156" />
        <g
           id="g158"
           transform="translate(414.5972,13.7198)">
          <path
             d="M 0,0 C 0.357,0.408 0.536,0.982 0.536,1.721 V 3.295 C 0.536,4.033 0.357,4.604 0,5.007 -0.357,5.409 -0.862,5.61 -1.515,5.61 -2.167,5.61 -2.672,5.409 -3.029,5.007 -3.386,4.604 -3.565,4.033 -3.565,3.295 V 1.721 c 0,-0.739 0.179,-1.313 0.536,-1.721 0.357,-0.409 0.862,-0.613 1.514,-0.613 0.653,0 1.158,0.204 1.515,0.613 m -3.629,-1.904 c -0.586,0.323 -1.033,0.795 -1.341,1.414 -0.308,0.619 -0.462,1.365 -0.462,2.238 v 1.547 c 0,0.86 0.154,1.597 0.462,2.21 0.308,0.613 0.755,1.08 1.341,1.4 0.586,0.322 1.291,0.482 2.114,0.482 0.824,0 1.529,-0.16 2.115,-0.482 0.586,-0.32 1.032,-0.787 1.341,-1.4 0.308,-0.613 0.462,-1.35 0.462,-2.21 V 1.721 C 2.403,0.854 2.249,0.114 1.941,-0.499 1.632,-1.112 1.186,-1.581 0.6,-1.904 0.014,-2.228 -0.691,-2.39 -1.515,-2.39 c -0.823,0 -1.528,0.162 -2.114,0.486"
             style="fill:#4d4d4d;fill-opacity:1;fill-rule:nonzero;stroke:none"
             id="path160" />
        </g>
        <g
           id="g162"
           transform="translate(429.2466,15.1564)">
          <path
             d="M 0,0 0.971,1.236 5.932,-2.663 4.961,-3.908 Z m 1.479,-1.615 c 0.417,0.247 0.741,0.597 0.97,1.053 0.229,0.454 0.343,0.98 0.343,1.579 V 4.915 C 2.792,5.514 2.678,6.04 2.449,6.494 2.22,6.949 1.896,7.3 1.479,7.547 1.061,7.794 0.577,7.918 0.027,7.918 -0.521,7.918 -1.005,7.794 -1.423,7.547 -1.841,7.3 -2.164,6.949 -2.394,6.494 -2.622,6.04 -2.736,5.514 -2.736,4.915 V 1.017 c 0,-0.599 0.114,-1.125 0.342,-1.579 0.23,-0.456 0.553,-0.806 0.971,-1.053 0.418,-0.247 0.902,-0.371 1.45,-0.371 0.55,0 1.034,0.124 1.452,0.371 m -3.904,-1.602 c -0.708,0.405 -1.256,0.98 -1.643,1.721 -0.388,0.741 -0.581,1.6 -0.581,2.576 v 3.772 c 0,0.975 0.193,1.835 0.581,2.576 0.387,0.741 0.935,1.315 1.643,1.72 0.707,0.407 1.526,0.61 2.452,0.61 0.928,0 1.745,-0.203 2.453,-0.61 C 3.188,8.743 3.736,8.169 4.124,7.428 4.511,6.687 4.705,5.827 4.705,4.852 V 1.08 C 4.705,0.104 4.511,-0.755 4.124,-1.496 3.736,-2.237 3.188,-2.812 2.48,-3.217 1.772,-3.623 0.955,-3.826 0.027,-3.826 c -0.926,0 -1.745,0.203 -2.452,0.609"
             style="fill:#4d4d4d;fill-opacity:1;fill-rule:nonzero;stroke:none"
             id="path164" />
        </g>
        <path
           d="m 442.647,20.969 h 1.858 v -9.501 h -1.858 z m -3.862,-5.776 c 0,-0.665 0.169,-1.179 0.508,-1.543 0.338,-0.362 0.816,-0.543 1.432,-0.543 0.61,0 1.083,0.161 1.419,0.484 0.335,0.324 0.503,0.784 0.503,1.383 l 0.128,-1.987 c -0.195,-0.469 -0.513,-0.863 -0.952,-1.18 -0.439,-0.318 -0.979,-0.477 -1.62,-0.477 -1.049,0 -1.86,0.338 -2.43,1.012 -0.57,0.674 -0.855,1.625 -0.855,2.851 v 5.776 h 1.867 z"
           style="fill:#4d4d4d;fill-opacity:1;fill-rule:nonzero;stroke:none"
           id="path166" />
        <path
           d="m 447.343,20.969 h 1.867 v -9.501 h -1.867 z m 0,3.807 h 1.867 v -1.867 h -1.867 z"
           style="fill:#4d4d4d;fill-opacity:1;fill-rule:nonzero;stroke:none"
           id="path168" />
        <g
           id="g170"
           transform="translate(453.8277,11.4952)">
          <path
             d="m 0,0 c -0.491,0.11 -0.951,0.274 -1.378,0.494 -0.427,0.22 -0.82,0.494 -1.181,0.824 l 1.108,1.364 C -0.938,2.291 -0.429,1.998 0.077,1.804 0.584,1.608 1.084,1.511 1.578,1.511 2.316,1.511 2.87,1.625 3.24,1.854 3.609,2.082 3.794,2.426 3.794,2.884 3.794,3.188 3.693,3.417 3.491,3.57 3.29,3.723 3.04,3.824 2.741,3.876 2.442,3.929 2.021,3.976 1.478,4.019 1.429,4.019 1.377,4.02 1.322,4.022 1.268,4.026 1.216,4.03 1.167,4.037 1.143,4.037 1.118,4.038 1.094,4.041 1.069,4.044 1.045,4.046 1.021,4.046 0.404,4.095 -0.118,4.185 -0.545,4.315 -0.972,4.447 -1.327,4.692 -1.611,5.053 -1.896,5.413 -2.037,5.928 -2.037,6.6 c 0,0.671 0.138,1.229 0.412,1.674 0.274,0.446 0.684,0.78 1.227,1.002 0.543,0.223 1.223,0.335 2.041,0.335 0.494,0 0.965,-0.046 1.414,-0.137 C 3.505,9.382 3.934,9.246 4.343,9.066 4.752,8.886 5.146,8.659 5.523,8.385 L 4.397,7.021 C 3.922,7.325 3.453,7.555 2.993,7.707 2.532,7.859 2.082,7.936 1.643,7.936 1.008,7.936 0.532,7.827 0.215,7.611 -0.103,7.395 -0.261,7.069 -0.261,6.636 -0.261,6.38 -0.171,6.187 0.009,6.06 0.188,5.932 0.416,5.846 0.69,5.803 0.965,5.761 1.355,5.724 1.862,5.693 1.899,5.687 1.937,5.685 1.977,5.685 c 0.04,0 0.081,-0.004 0.124,-0.01 H 2.155 C 2.174,5.675 2.191,5.672 2.21,5.666 2.875,5.623 3.441,5.534 3.908,5.4 4.375,5.267 4.767,5.001 5.084,4.604 5.401,4.207 5.561,3.634 5.561,2.884 5.561,2.2 5.414,1.634 5.121,1.186 4.828,0.737 4.387,0.399 3.798,0.174 3.209,-0.052 2.47,-0.165 1.578,-0.165 1.018,-0.165 0.491,-0.109 0,0"
             style="fill:#4d4d4d;fill-opacity:1;fill-rule:nonzero;stroke:none"
             id="path172" />
        </g>
        <g
           id="g174"
           transform="translate(464.4771,11.756)">
          <path
             d="m 0,0 c -0.439,0.284 -0.763,0.686 -0.971,1.204 l 0.129,1.986 c 0,-0.409 0.073,-0.756 0.22,-1.044 C -0.476,1.859 -0.264,1.64 0.014,1.487 0.291,1.335 0.628,1.259 1.025,1.259 c 0.617,0 1.094,0.187 1.433,0.562 0.338,0.376 0.508,0.906 0.508,1.589 v 2.059 c 0,0.696 -0.17,1.236 -0.508,1.62 C 2.119,7.474 1.642,7.666 1.025,7.666 0.628,7.666 0.291,7.593 0.014,7.446 -0.264,7.3 -0.476,7.085 -0.622,6.801 -0.769,6.518 -0.842,6.177 -0.842,5.78 l -0.192,1.831 c 0.287,0.555 0.662,0.984 1.126,1.286 0.464,0.302 0.979,0.454 1.547,0.454 0.671,0 1.246,-0.152 1.724,-0.454 C 3.843,8.595 4.207,8.154 4.458,7.574 4.708,6.995 4.833,6.296 4.833,5.479 V 3.41 C 4.833,2.604 4.705,1.915 4.448,1.341 4.192,0.768 3.816,0.33 3.322,0.027 2.828,-0.274 2.236,-0.426 1.547,-0.426 0.955,-0.426 0.439,-0.283 0,0 m -2.709,9.213 h 1.867 V -4.15 h -1.867 z"
             style="fill:#4d4d4d;fill-opacity:1;fill-rule:nonzero;stroke:none"
             id="path176" />
        </g>
        <g
           id="g178"
           transform="translate(473.6021,11.8253)">
          <path
             d="m 0,0 c -0.622,0.329 -1.097,0.812 -1.423,1.45 -0.326,0.638 -0.49,1.408 -0.49,2.312 v 1.07 c 0,0.94 0.157,1.742 0.472,2.407 0.314,0.665 0.77,1.172 1.368,1.52 0.598,0.347 1.318,0.522 2.16,0.522 0.794,0 1.471,-0.199 2.032,-0.595 C 4.681,8.289 5.109,7.716 5.405,6.965 5.701,6.215 5.85,5.314 5.85,4.265 V 3.643 H -0.558 V 5.144 H 4.073 C 4.019,5.919 3.818,6.521 3.474,6.951 3.129,7.382 2.667,7.597 2.087,7.597 1.379,7.597 0.832,7.364 0.444,6.901 0.057,6.437 -0.137,5.781 -0.137,4.933 V 3.725 C -0.137,2.938 0.07,2.334 0.485,1.912 0.9,1.491 1.489,1.281 2.252,1.281 2.63,1.281 3.006,1.357 3.378,1.51 3.75,1.662 4.083,1.876 4.376,2.15 L 5.603,0.924 C 5.132,0.473 4.604,0.123 4.019,-0.124 3.433,-0.371 2.844,-0.495 2.252,-0.495 1.373,-0.495 0.623,-0.33 0,0"
             style="fill:#4d4d4d;fill-opacity:1;fill-rule:nonzero;stroke:none"
             id="path180" />
        </g>
      </g>
    </g>
  </g>
</svg>
